<svg width="14" height="14" viewBox="0 0 14 14" fill="none" xmlns="http://www.w3.org/2000/svg">
<path d="M12.1604 5.99976H11.8271C11.6271 6.5331 11.4271 7.06645 11.0937 7.5998L12.0937 12.6666H1.76019L2.76021 7.5998C2.49354 7.06645 2.29353 6.5331 2.09353 5.99976H1.76019L0.160156 14H13.7604L12.1604 5.99976Z" fill="#FAFAFA"/>
<path d="M6.9612 0C4.76115 0 2.96112 1.80004 2.96112 4.00009C2.96112 6.20013 6.9612 12.0003 6.9612 12.0003C6.9612 12.0003 10.9613 6.20013 10.9613 4.00009C10.9613 1.80004 9.16125 0 6.9612 0ZM6.9612 6.00013C5.82784 6.00013 4.96116 5.13344 4.96116 4.00009C4.96116 2.86673 5.82784 2.00004 6.9612 2.00004C8.09456 2.00004 8.96124 2.86673 8.96124 4.00009C8.96124 5.13344 8.09456 6.00013 6.9612 6.00013Z" fill="#FAFAFA"/>
</svg>
